<svg width="20" height="20" viewBox="0 0 20 20" fill="none" xmlns="http://www.w3.org/2000/svg">
<path d="M19.8843 4.17858C19.7698 4.0145 19.5856 3.91308 19.3855 3.90453L6.97933 3.36977C6.62337 3.35419 6.32592 3.629 6.3107 3.9833C6.29557 4.33747 6.56993 4.63672 6.92419 4.65194L18.4905 5.15053L16.2163 12.2461H6.09595L4.26757 2.29067C4.22737 2.07247 4.07757 1.89045 3.87097 1.80939L0.876383 0.632941C0.546342 0.503726 0.173915 0.665837 0.0442973 0.995476C-0.0850965 1.32529 0.0769703 1.69794 0.406833 1.82756L3.0695 2.87359L4.93015 13.0038C4.98624 13.3083 5.25165 13.5295 5.56141 13.5295H5.87006L5.16527 15.4872C5.10628 15.6512 5.13058 15.8333 5.23097 15.9757C5.33123 16.1183 5.49428 16.203 5.66834 16.203H6.16269C5.85637 16.5439 5.66834 16.9928 5.66834 17.4864C5.66834 18.548 6.53211 19.4116 7.59345 19.4116C8.65478 19.4116 9.51855 18.548 9.51855 17.4864C9.51855 16.9929 9.33053 16.5439 9.02425 16.203H13.2215C12.915 16.5439 12.727 16.9928 12.727 17.4864C12.727 18.548 13.5906 19.4116 14.6521 19.4116C15.7137 19.4116 16.5773 18.548 16.5773 17.4864C16.5773 16.9929 16.3893 16.5439 16.083 16.203H16.6842C16.9796 16.203 17.219 15.9636 17.219 15.6683C17.219 15.3729 16.9796 15.1335 16.6842 15.1335H6.42922L7.00668 13.5293H16.6842C16.9632 13.5293 17.2102 13.349 17.2952 13.0835L19.9689 4.74132C20.0303 4.55092 19.9988 4.34275 19.8843 4.17858ZM7.59349 18.3423C7.12161 18.3423 6.73786 17.9585 6.73786 17.4867C6.73786 17.0148 7.12161 16.631 7.59349 16.631C8.06537 16.631 8.44907 17.0148 8.44907 17.4867C8.44907 17.9585 8.06537 18.3423 7.59349 18.3423ZM14.6521 18.3423C14.1803 18.3423 13.7966 17.9585 13.7966 17.4867C13.7966 17.0148 14.1803 16.631 14.6521 16.631C15.124 16.631 15.5077 17.0148 15.5077 17.4867C15.5077 17.9585 15.124 18.3423 14.6521 18.3423Z" fill="#767272"/>
</svg>
